<svg width="18" height="18" viewBox="0 0 18 18" fill="none" xmlns="http://www.w3.org/2000/svg">
<path d="M9 1.49998C4.8675 1.49998 1.5 4.86748 1.5 8.99999C1.5 13.1325 4.8675 16.5 9 16.5C13.1325 16.5 16.5 13.1325 16.5 8.99999C16.5 4.86748 13.1325 1.49998 9 1.49998ZM11.52 10.725C11.7375 10.9425 11.7375 11.3025 11.52 11.52C11.4075 11.6325 11.265 11.685 11.1225 11.685C10.98 11.685 10.8375 11.6325 10.725 11.52L9 9.79499L7.275 11.52C7.1625 11.6325 7.02 11.685 6.8775 11.685C6.735 11.685 6.5925 11.6325 6.48 11.52C6.2625 11.3025 6.2625 10.9425 6.48 10.725L8.205 8.99999L6.48 7.27498C6.2625 7.05749 6.2625 6.69749 6.48 6.47999C6.6975 6.26249 7.0575 6.26249 7.275 6.47999L9 8.20499L10.725 6.47999C10.9425 6.26249 11.3025 6.26249 11.52 6.47999C11.7375 6.69749 11.7375 7.05749 11.52 7.27498L9.795 8.99999L11.52 10.725Z" fill="#CC444B"/>
</svg>
